<?xml version="1.0" encoding="utf-8"?>
<!-- Generator: Adobe Illustrator 24.0.1, SVG Export Plug-In . SVG Version: 6.00 Build 0)  -->
<svg version="1.1" id="Layer_1" xmlns="http://www.w3.org/2000/svg" xmlns:xlink="http://www.w3.org/1999/xlink" x="0px" y="0px"
	 viewBox="0 0 816.2 640.5" style="enable-background:new 0 0 816.2 640.5;" xml:space="preserve">
<style type="text/css">
	.st0{fill:#F0F0F0;}
	.st1{fill:#3F3D56;}
	.st2{opacity:0.2;}
	.st3{fill:#6C63FF;}
	.st4{fill:#CE9367;}
	.st5{fill:#2F2E41;}
	.st6{opacity:0.1;enable-background:new    ;}
	.st7{fill:#CACACA;}
</style>
<path id="e5b01265-0b4f-4d57-a9fa-5bd80347d7aa-129" class="st0" d="M570.4,291.1c-0.9,34.2-6.6,68-17,100.6
	c-0.2,0.8-0.5,1.5-0.7,2.3h-63.5c0.1-0.7,0.1-1.4,0.2-2.3c4.2-48.6-19.9-341.1-49.1-391.7C442.8,4.1,575.3,136.6,570.4,291.1z"/>
<path id="ffdef3f3-76d4-4555-b476-c3b551816dea-130" class="st0" d="M565.6,391.7c-0.5,0.8-1.1,1.5-1.6,2.3h-47.6
	c0.4-0.6,0.8-1.4,1.3-2.3c7.9-14.2,31.1-56.6,52.7-100.6c23.2-47.3,44.5-96.3,42.7-114.1C613.6,181,629.7,303.1,565.6,391.7z"/>
<path class="st1" d="M793.7,640.5h-586c-12.4,0-22.5-10.1-22.5-22.5V334c0-12.4,10.1-22.5,22.5-22.5h586c12.4,0,22.5,10.1,22.5,22.5
	v284C816.2,630.4,806.1,640.5,793.7,640.5z"/>
<rect x="280.8" y="475" class="st0" width="438.8" height="2"/>
<rect x="280.8" y="515" class="st0" width="438.8" height="2"/>
<rect x="280.8" y="555" class="st0" width="438.8" height="2"/>
<g class="st2">
	<path class="st3" d="M719.2,458.7c-13-14.1-34.8-16.7-53.5-12.5s-35.5,14.3-52.9,22.4s-36.7,14.5-55.5,10.9
		c-18.2-3.5-33.2-15.7-48.8-25.7s-34.6-18.2-52.3-12.6c-21.8,7-31.9,31.4-47.6,48.2c-30.5,32.5-81.6,34.1-114.1,3.7
		c-3.6-3.4-6.9-7.1-9.9-11.1v74.7h433.3L719.2,458.7z"/>
</g>
<rect x="280.8" y="395" class="st0" width="438.8" height="2"/>
<rect x="280.8" y="435" class="st0" width="438.8" height="2"/>
<path class="st3" d="M283.4,482.6c18.7,25.2,51,38.2,81.9,32.1c15.6-3.1,29.9-10.5,41.4-21.4c10.4-9.9,17.5-22.6,26.7-33.5
	c4.5-5.3,9.4-10.2,15.4-13.8c6.9-4,14.8-5.8,22.7-5.1c17.7,1.3,32.9,11.8,47.1,21.4c13.9,9.3,28.4,18.3,45.5,19.5
	c18,1.2,35.5-5.4,51.4-13c16.3-7.8,32.3-17,50-21.1c14.5-3.4,30.9-2.7,43.9,5.1c3.1,1.9,6,4.2,8.5,6.9c1.3,1.4,3.4-0.7,2.1-2.1
	c-10-10.7-24.8-15-39.2-14.8c-16.7,0.2-32.4,6.6-47.3,13.8c-16.5,8-32.7,17.1-50.9,20.8c-9,2-18.3,2-27.3,0.1
	c-8.3-1.9-15.9-5.7-23.2-10c-14.6-8.7-27.8-19.8-43.9-25.8c-14.8-5.5-31-5.6-44.2,3.7c-11.4,8-19,20.2-27.2,31.2
	c-4.2,5.9-9.1,11.4-14.4,16.4c-6.2,5.4-13.1,9.9-20.6,13.2c-14.8,6.7-31.4,8.6-47.4,5.5c-15.5-3.1-29.7-10.7-41-21.9
	c-2.8-2.8-5.3-5.7-7.7-8.9C284.9,479.6,282.3,481.1,283.4,482.6L283.4,482.6z"/>
<circle class="st3" cx="469" cy="440.3" r="10"/>
<circle class="st3" cx="679" cy="443.3" r="10"/>
<circle class="st3" cx="356" cy="514.3" r="10"/>
<path class="st4" d="M141.3,213.5c-4.8,2-7,7.5-5.1,12.3c0.2,0.5,0.5,1,0.8,1.5l-28.3,40.5l8.9,10l33-48c4.2-3.1,5.1-9,2-13.2
	C150,213.1,145.3,211.8,141.3,213.5L141.3,213.5z"/>
<polygon class="st4" points="162.4,627.1 150.1,627.1 144.3,579.8 162.4,579.8 "/>
<path class="st5" d="M165.5,639l-39.5,0v-0.5c0-8.5,6.9-15.4,15.4-15.4h0l24.1,0L165.5,639z"/>
<path class="st6" d="M21,634.9l-1-0.2L21,634.9z"/>
<path class="st6" d="M21.6,635l-0.5-0.1L21.6,635L21.6,635z"/>
<path class="st6" d="M7.3,629.3"/>
<path class="st6" d="M7.3,629.3"/>
<path class="st6" d="M21.1,634.9L21.1,634.9z"/>
<polygon class="st7" points="131,453 143.8,614.4 165.5,614.4 171.5,453 "/>
<polygon class="st7" points="165,285.7 156.4,281.4 126.6,279.4 129.7,264.6 106.2,264.6 97.2,295.8 152.2,305.9 "/>
<circle class="st5" cx="180.9" cy="237.9" r="28.9"/>
<ellipse transform="matrix(0.7071 -0.7071 0.7071 0.7071 -108.1843 170.6941)" class="st5" cx="152" cy="215.9" rx="12" ry="9"/>
<ellipse transform="matrix(0.3928 -0.9196 0.9196 0.3928 -70.1794 310.4945)" class="st5" cx="200" cy="208.4" rx="9" ry="12"/>
<circle class="st4" cx="181.8" cy="244.8" r="24.6"/>
<path class="st5" d="M156,229.4c5.6,3.9,12.3,5.9,19.1,5.9c-2.4,1.7-5.2,2.8-8.1,3.3c9.1,1.9,18.4,2,27.5,0.2c2-0.3,4-1,5.8-2
	c1.8-1,3.1-2.7,3.6-4.8c0.6-3.4-2.1-6.6-4.9-8.7c-8.7-6.4-19.8-8.7-30.2-6c-3.4,0.9-6.8,2.3-9,5.1s-2.8,6.9-0.8,9.7L156,229.4z"/>
<polygon class="st4" points="149.7,534.5 143.2,544.8 100.1,524.5 109.8,509.2 "/>
<path class="st5" d="M161.4,538.2l-21.1,33.4l-0.4-0.3c-7.2-4.5-9.3-14-4.8-21.2l0,0l12.9-20.4L161.4,538.2z"/>
<path class="st7" d="M214.4,272.7l-58,8.7l-10,23c0,0-22.2,10.3-7.4,34.9l-17.2,62.5c0,0-80.6,40.9-79,68.3s84.1,72.5,84.1,72.5
	l11.6-18.7l-47.7-47.2l44.6-14.2l35.2,1.7c0,0,38.3-29.9,15.5-79.8l15.7-46L214.4,272.7z"/>
<path class="st4" d="M171.7,414.4c5.2-0.2,9.2-4.5,9-9.7c0-0.6-0.1-1.1-0.2-1.6l40.7-28l-4.8-12.5L168.7,396
	c-5,1.4-7.9,6.7-6.5,11.7C163.4,411.8,167.3,414.6,171.7,414.4L171.7,414.4z"/>
<path class="st7" d="M201.5,282.1l11.9-9.4c0,0,15.8,11.9,15.8,20.9s2.6,79.8,2.6,79.8l-21.3,15.2l-19.9-12.1l13.7-17.4l-6.5-40.7
	L201.5,282.1z"/>
<path class="st1" d="M382,640H1c-0.6,0-1-0.4-1-1s0.4-1,1-1h381c0.6,0,1,0.4,1,1S382.6,640,382,640z"/>
</svg>
